<svg xmlns="http://www.w3.org/2000/svg" id="_layer_2" viewBox="0 0 234.34 58.73"><defs><style>.cls-1{fill:#040000}</style></defs><g id="_layer_1-2"><path d="M57.1 29.8c.24-.42.49-.86.77-1.27.41-.61.79-1.27 1.16-1.9.4-.69.8-1.39 1.25-2.04l.14-.2c.52-.74 1.05-1.51 1.35-2.31l2.38-4.1c.45-.61.96-1.81 1.3-2.6l.91-1.71c.37-.74.63-1.29.86-1.79.09-.21.14-.35.19-.5.04-.11.07-.22.13-.37s.12-.27.19-.41.15-.29.23-.5c.7-1.64 1.2-3.26 1.58-5.08.36-1.75.59-4.15-1.65-4.85-1.26-.4-2.09.03-2.97.49-.29.15-.59.31-.92.44-.49.2-.81.38-1.15.56-.16.09-.33.18-.53.29-.29.15-.41.24-.56.36-.07.05-.14.11-.25.19l-7.4 6.25-.02.02s-.1.09-.12.11l-5.41 5.45c-.97.96-1.89 2.04-2.77 3.08-.3.36-.61.71-.91 1.06-.55.64-1.13 1.27-1.68 1.88-1.06 1.18-2.16 2.39-3.19 3.72l-8.2 9.84c-.26.41-1.13 1.26-1.66 1.77l-.26.26c-.15.15-.3.32-.46.49-.46.52-.94 1.06-1.58 1.26-.8-1.73.36-6.56.73-7.78.15-.51.29-1.01.44-1.51.37-1.32.73-2.56 1.23-3.84l3.72-8.45s.07-.1.11-.15c.29-.41.74-1.04.54-1.42-.1-.19-.34-.29-.71-.29-.52 0-.8.64-.93.95-.06.14-.09.22-.11.27-.03.09-.04.11-.19.35l-1.31 2.41c-.29.69-.61 1.38-.91 2.04-.56 1.23-1.14 2.5-1.6 3.8-.1.28-.21.59-.33.92-.55 1.55-1.24 3.49-1.46 4.72l-.71 3.01c-.35 1.79-.8 4.98.17 6.17.26.31.6.47 1.02.47 1.19 0 2.01-.74 2.8-1.45.18-.16.36-.32.54-.47.66-.55 3.22-3.67 5.09-5.96.64-.79 1.2-1.46 1.55-1.88l1.63-1.96c.91-1.19 2.25-2.9 3.39-4.02l6.35-7.17.07-.08c.09-.1.17-.18.25-.26l1.72-1.85c.08-.08.17-.15.25-.21.13-.1.26-.2.39-.35.13-.16.19-.28.24-.38.05-.11.1-.21.21-.33l10.2-9c1.61-1.17 3.13-2.27 5.2-2.27.27 0 .35.14.48.43l.04.09c.19.41.19.41.15.54-.02.08-.06.2-.09.42l-.23 2.42c-.09.53-.23.89-.38 1.3-.08.21-.16.43-.25.7-1.02 3.14-2.65 6.17-4.23 9l-2.37 4.26c-.1.19-.17.27-.25.36-.08.09-.17.19-.3.41-.2.34-.38.7-.56 1.05-.26.52-.53 1.05-.85 1.5-.08.12-.14.2-.2.27-.11.14-.19.25-.34.52l-3.1 4.84c-.07.11-.15.2-.22.29-.11.14-.22.29-.33.48l-7.02 10.21c-.14.21-.24.31-.33.41-.08.08-.16.17-.27.31s-.19.3-.28.44c-.07.13-.15.26-.23.37l-1.76 2.22-.57.76c-.21.28-.39.47-.58.68-.2.22-.4.44-.64.76-1.09 1.49-2.52 2.91-3.77 4.16-.5.5-.86.85-1.3 1.36-.13.15-.24.24-.35.34-.09.08-.2.17-.32.3l-.13.13c-.47.5-.43.98-.21 1.21.1.1.24.16.42.16.23 0 .5-.11.8-.37l5.9-5.77c.19-.2.28-.31.38-.45.06-.08.13-.17.22-.28.24-.28.48-.56.73-.84.58-.66 1.17-1.33 1.67-2.06l1.67-2.18c.44-.61.91-1.25 1.41-1.92.83-1.11 1.7-2.27 2.37-3.31l3.67-5.59c.48-.58.86-1.25 1.24-1.9ZM196.07 28.54l-.08-.1c-.56-.13-.71-.1-.99-.02-.13.04-.28.08-.54.12-.51.08-1 .2-1.48.31-.79.19-1.54.36-2.33.38v-1.75c0-.37-.03-.57-.07-.76-.03-.19-.07-.36-.06-.69 0-.22.01-.28.02-.33 0-.06.01-.11 0-.29l-.21-5.91v-.14c0-.1.01-.21-.01-.46l-.38-7.97c-.09-.74-.27-1.17-.58-1.38-.39-.27-.94-.16-1.68.03l-.4.1c-1.01.25-2.05.51-2.98.91l-3.17 1.07c-.61.18-.64.21-.78.79v.04l.02.1.5.56.11.03 1.83-.6c.26-.07.5-.17.74-.27.35-.14.68-.27 1.03-.33.78-.13 1.22-.22 1.95-.45l1.89-.47c0 .31-.01.61-.02.89-.02.49-.03.92 0 1.25.06.71.04 1.46.01 2.18-.03.84-.05 1.71.05 2.53.07.61.13 1.86.13 2.42 0 1.58.01 3.97.2 5.75.04.36 0 .46-.03.57-.03.11-.07.23-.05.56 0 .18.02.37.03.57.04.56.08 1.2.08 1.88l-1.35.25c-.32.03-.57.1-.86.17-.17.04-.35.09-.57.14-.71.15-2.03.51-3.43.88-1.78.48-3.77 1.01-4.59 1.15.67-.95 1.49-1.83 2.28-2.68.17-.18.33-.36.5-.54l.05-.05s.05-.06.15-.16l.12-.14c.18-.21.29-.34.49-.56l2.31-2.59c.24-.23.46-.49.68-.74.29-.34.59-.69.93-.97l1.98-2 .16-.16c.33-.32.6-.58.59-.9 0-.23-.16-.46-.49-.73-.89-.73-3.28-.05-4.7.35-.18.05-.35.1-.5.14l-1.95.57c-.11.03-.23.06-.37.09-.58.13-1.37.3-1.37 1.01 0 .24.08.42.23.53.4.28 1.21 0 1.7-.18.09-.03.17-.06.23-.08.73-.22 3.85-.94 4.88-1.07-.21.27-.46.51-.73.75-.14.13-.28.26-.42.4-.15.15-.25.28-.34.4-.08.11-.16.21-.27.32l-7.21 7.91c-.13.16-.27.36-.41.56-.18.26-.38.54-.56.74l1.58-7.17c.03-.17.04-.32.06-.48.02-.2.03-.38.08-.57l.64-2.95c.07-.42.18-.87.3-1.33.28-1.14.58-2.31.33-3.38l-.08-.08c-.4-.09-.7-.07-.93.08-.36.23-.48.74-.6 1.38-.02.11-.03.2-.05.29a8 8 0 0 1-.07.38l-.13.57c-.67 2.88-1.92 8.24-2.2 10.5-.02.19-.04.32-.05.34-.02.04-.05.08-.11.29l-1.13 5.83-4.99-3.63c-.73-.7-2-1.52-3.01-2.18-.17-.11-.33-.22-.48-.32l-5.05-3.38c-.24-.17-.33-.21-.71-.21-.51 0-.51.34-.51.64 0 .4.94 1.09 2.34 2.02.1.07.19.12.25.17.09.06.17.12.25.17.24.15.42.28.67.48.21.17.4.29.6.43.11.07.23.15.35.23l6.41 4.58c1.4 1.15 2.61 2 3.7 2.58l-.92 4.3v.04c-.12.69-.15.85.45 1.26l.08.02c.81-.19.92-.99 1.11-2.33.05-.35.11-.75.18-1.19.03-.17.07-.31.1-.46.05-.21.11-.43.13-.7.16.12.37.29.59.48.76.63 1.71 1.42 2.23 1.42.43 0 .57-.17.61-.31.11-.35-.29-.86-.73-1.15l-2.4-1.86c.25-.61.59-2.18.63-3.11.61.28.99.15 1.54-.03.15-.05.32-.11.51-.16l3.21-.77c.32-.09.59-.14.87-.2.23-.05.47-.09.75-.16.13-.03.37-.1.69-.18 1.47-.39 4.84-1.27 5.74-1.34.01.17.03.29.04.38.03.31.04.33-.03.98-.04.37 0 .6.04.84.04.2.07.41.07.74v1.33c.04.69.02 1.42 0 2.13-.02.91-.05 1.85.05 2.71l.34 17.03c.01.78.2.94.58 1.26l.12.02.07-.04q.12-.06.31-.08h.11l.1-.09c.25-1.07.16-2.64.09-3.91-.03-.51-.05-.95-.05-1.28 0-.13.02-.22.04-.34.02-.15.05-.31.06-.58v-6.37c0-.28.02-.43.05-.56.02-.11.04-.21.04-.37l-.09-6.23c0-.27.02-.36.04-.44.02-.09.04-.18.03-.45 0-.19-.02-.4-.03-.57l-.17-6.65c.71-.03 1.42-.24 2.1-.43.33-.1.65-.19.97-.26.14-.03.33-.06.56-.09.7-.1 1.58-.23 1.8-.58.18-.28.12-.43.06-.57a.739.739 0 0 1-.06-.29ZM135.66 38.2c.37-.83.83-1.86.32-3.03-.13-.3-.18-.35-.41-.54l-.21-.17c-.52-.44-.54-.46-.97-.46h-.18c-1.53-.04-2.14.29-2.72.6-.28.15-.57.31-.97.42.09-.2.2-.26.38-.35.13-.06.3-.15.49-.31l.1-.08c.47-.39.56-.5.56-1.36l-.05-.09-.13-.09c-.35-.24-.6-.41-1.18-.23-.48.15-.62.31-.82.54-.19.22-.45.52-1.14 1-.27.19-.48.31-.72.45-.13.08-.27.16-.42.26-.27.17-.42.29-.56.42-.2.17-.41.35-.99.67l-1.73.92c-.25.13-.49.22-.72.31-.12.05-.25.1-.37.15.09-.38.07-.52-.22-.91-.49-.66-1.65-.99-2.51-.98-1.29.03-1.81.54-2.02.97-.36.72-.04 1.61.24 1.99.16.22.32.33.46.43.1.07.19.14.28.23l-.3.16c-1.47.79-2.63 1.41-4.58 1.49-.16 0-.29.02-.4.02q-.59.04-1.18-.36l-.02-.02c0-.81.05-.94.4-1.45.17-.25.67-.9.86-1.07l1.78-1.32-.02.02c.13-.06.26-.19.18-.69-.04-.23-.14-.4-.31-.51-.48-.32-1.4-.09-2.29.12-.35.09-.69.17-1 .22-1.94.31-3.89 1.34-5.05 1.95-.24.13-.46.24-.62.32.56-.95.65-1.8.23-2.31-.33-.41-.94-.5-1.61-.23-1.12.45-1.45 1.12-1.29 1.56.12.31.48.44.87.3.21-.07.29-.15.37-.21.07-.06.14-.12.33-.18-.12.34-.31.57-.48.8-.08.1-.16.21-.23.32-.06.09-.1.15-.13.21-.04.07-.08.15-.17.27-.92 1.28-1.27 1.66-1.71 2.13-.27.29-.57.61-1.05 1.19-.23.28-.3.33-.41.42-.07.06-.17.13-.33.28-.38.36-.46.58-.46 1.24l.05.09c.89.6 1.16.33 1.57-.19.13-.17.28-.36.48-.55l1.32-1.21c1.41-1.43 4.45-3.32 6.49-4.03l1.61-.42s-.02.02-.03.04c-.62.88-1.65 2.36-.81 3.75.08.13.11.15.14.19l.05.05.2.21c1.39 1.41 4.87.7 6.43-.09.54-.28.8-.38 1-.47.38-.16.6-.25 2.11-1.2.14-.08.24-.16.33-.22.19-.14.33-.24.66-.35.21-.07.4-.09.59-.12.22-.03.46-.05.73-.16l1.96-.9c-.29.45-.75.99-1.16 1.48-.46.54-.89 1.06-1.05 1.38l-.32.45c-.33.33-.38.4-.47.55-.05.08-.11.18-.24.36l-6 8.6c-.14.24-.27.45-.41.65-.36.54-.66 1.02-.66 1.66l.07.1c.3.16.48.25.63.25.21 0 .35-.17.63-.56l4.58-6.19c.26-.29.5-.63.69-.92l.08-.12c.68-1 1.54-2.25 2.31-3.03.05-.05.07-.07.09-.08.02-.01.04-.04.06-.05l.23-.32c1.24-1.94 4.56-5.14 6.67-6.1l.19-.09c.28-.13.55-.26.92-.37l.18-.05c.56-.17 1.26-.37 1.67-.13.16.1.27.26.32.5.33 1.56-1.8 3.09-3.07 4-.14.1-.26.19-.38.27-.55.41-.85.54-1.28.72-.22.1-.47.2-.8.37l-.14.07c-.39.19-.38.19-.47.17-.08-.02-.21-.06-.5-.07.04-.35.12-.51.18-.63.14-.28.12-.36-.34-1.05l-.09-.05c-.78 0-1.03.22-1.3.71-.14.25-.43.91-.21 1.63.47 1.56 2.12 1.13 2.67.99.27-.07.44-.09.59-.11.26-.03.44-.06.89-.29.26-.13.48-.29.7-.44.15-.1.29-.2.44-.29l1.59-1.09c.19-.18.39-.34.61-.52.68-.57 1.38-1.15 1.78-2.06l.07-.16Zm-15.63-1.04v-.03c.16 0 .3 0 .42-.01.46-.02.65-.03 1.03.22-.06.18-.16.29-.31.34-.33.11-.8-.13-.93-.23-.2-.16-.21-.21-.21-.29ZM234.27 20.79c-.18-.53-.3-.58-.7-.64-1.25-.21-8.71 1.52-10.13 1.87-.44.11-.81.17-1.2.24-.59.1-1.25.21-2.3.51-.35.1-.79.18-1.21.26-.38.07-.76.14-1.08.22-.25.07-.49.15-.72.22-.46.15-.9.3-1.36.33 0-.15.02-.23.02-.29.01-.09.02-.17.01-.33l.03-3.5c0-.5.01-1.01.02-1.52.02-1.1.05-2.24-.03-3.35-.01-.16 0-.36.02-.57.04-.48.08-1.02-.21-1.33-.15-.16-.36-.24-.64-.24-.66 0-.68.73-.69 1.09 0 .21 0 .29.05.33v.15l-.02 2.41c.04.52 0 .94-.04 1.39-.03.37-.07.75-.07 1.24v4.94c-.74.07-1.43.29-2.15.51-.28.09-.56.17-.84.25-.25.07-.48.12-.7.16-.25.05-.51.11-.8.19-.17.05-.24.08-.31.11-.08.03-.15.06-.39.12l-5.26 1.5c-.12.04-.25.07-.37.1-.48.12-.97.25-.97.86 0 .15.06.27.17.36.46.34 1.76 0 2.95-.35.22-.06.39-.12.49-.14l.37-.08c.36-.08.65-.13 1.05-.23l4.1-1.07c.23-.06.47-.1.72-.14.23-.04.47-.08.72-.14.19-.04.4-.11.63-.17.2-.06.4-.11.6-.16l-.08 3.62c-.05.47-.01.62.03.77.03.11.06.23.06.51 0 .24-.02.3-.05.36-.04.11-.07.21-.03.6v7.03c0 .13 0 .15-.01.29v.1l.01 4.8c-.02.32.03.53.16.67.12.13.3.19.55.19.19 0 .33-.06.44-.17.25-.27.23-.78.21-1.28 0-.13-.01-.26-.01-.37l.1-5.58c0-.17 0-.27-.02-.35v-.07l.15-6.1c.04-.78.05-1.62.06-2.43.01-1.01.02-2.05.1-3 .48-.05.98-.16 1.46-.27.19-.04.39-.09.57-.13l6.33-1.35c.34-.05.8-.16 1.24-.27.32-.08.65-.16.93-.22l6.35-1.18-.52 30.34c-.02.37-.02.78 0 1.18v.56l.08.1c.2.05.37.07.51.07.21 0 .37-.05.49-.15.3-.25.27-.75.24-1.33a5.9 5.9 0 0 1 0-1.03l.44-11.42c-.02-.93.03-1.96.09-3.04.05-.94.09-1.91.09-2.81l.23-8.55s.25-4.62.06-5.17ZM84.85 41.63c-.31-.08-.61-.15-.7-.58-.13-.64.26-1.43.5-1.91l.1-.2c.15-.31.23-.46.4-.78l1.31-2.01.05-.09c.16-.27.22-.37.22-.76 0-.28-.1-.48-.29-.61-.57-.37-1.75.14-1.8.16-.18.08-.25.12-.33.16-.05.03-.1.06-.21.11l-2.18 1.36c.05-.08.1-.13.18-.2.07-.06.15-.13.24-.23.43-.46.62-1.04.45-1.42-.11-.25-.36-.39-.7-.39-.45 0-.65.21-.99.55-.31.32-.73.75-1.59 1.31l-2.63 1.51c-.01-.11-.02-.16-.03-.21-.01-.07-.02-.11-.02-.36 0-.57-.29-1.05-.8-1.34-.65-.38-1.54-.38-2.21 0l-.56.66c-.16-.48-.44-.8-.84-.94-1.03-.35-2.51.52-3.23 1.1-.55.44-1.13.94-1.63 1.59-.58.77-.72.79-1.27.86-.18.02-.38.05-.65.1.04-.06.08-.11.12-.17.42-.59.81-1.14.81-1.92 0-.46-.49-.96-1.14-1.16-.79-.23-1.52.03-1.97.7-.91 1.37-.74 1.77-.55 2.19.07.16.14.31.14.52 0 .37-.32.58-.67.8-.16.11-.33.21-.46.34-.08.07-.14.14-.2.21-.12.13-.22.24-.4.36-.15.1-.31.17-.46.24-.13.06-.27.12-.41.21-.16.1-.25.18-.33.26-.09.09-.17.16-.34.24l-.97.37c-.76.37-2.69.6-3.44-.04-.3-.25-.42-.91-.26-1.41.03-.11.04-.13.12-.24l1.25-1.65c.15-.14.22-.24.28-.31.09-.12.14-.19.47-.36.53-.27 1.29-.59 1.94-.64-.15.51-.41.76-.74 1.08l-.36.36c-.12.13-.17.21-.21.28-.05.08-.09.15-.26.3-.16.15-.41.28-.66.43-.42.23-.86.48-1.05.83-.18.32-.17.43-.08.59.03.06.07.12.07.26l.08.1c.97.23 1.33-.14 1.94-.75.13-.13.28-.28.45-.44.11-.11.25-.23.4-.36.84-.74 1.99-1.75 1.99-2.67 0-.52-.19-.91-.55-1.15-.78-.51-2.17-.21-2.91.12-.61.27-1.64.98-2.11 1.53l-.12.15s-.04.05-.06.08l-.08.1c-.43.56-.81 1.05-1.04 1.77-.26.81-.45 1.39-.06 2.31.27.64.76 1.09 1.46 1.34 1.62.57 3.9-.1 4.95-.67.17-.09.35-.17.52-.26.41-.19.83-.38 1.19-.71.36-.33.39-.34.69-.52l.22-.14c.34-.21.47-.34.62-.5.09-.09.18-.18.32-.31.31-.26.93-.28 1.54-.3.34-.01.69-.02 1.01-.07-.22 1.12.09 1.95.88 2.35.8.4 1.89.33 3.33-.2.18-.07.21-.08.23-.1.02 0 .05-.02.21-.06h.04c.76-.23 1.13-.4 1.73-.7.51-.25.99-.53 1.44-.83.42-.27.67-.5.96-.76.11-.1.23-.21.36-.32.26-.22.31-.23.56-.28.06-.01.14-.03.23-.05.78-.18 1.6-.51 2.29-.92-.1.22-.23.38-.4.57-.12.14-.25.29-.37.49-.59.9-1.02 2.05-1.4 3.14-.33.93-.37 1.16.47 1.6H77c.37-.25.56-.66.84-1.23.4-.83.94-1.96 2.39-3.4l1.02-.96c.21-.17.41-.32.62-.49.16-.12.32-.25.5-.38.37-.29 1.39-1.01 2.05-1.34l-.08.08c-.12.12-.24.25-.39.47-.75 1.11-1.9 3.23-1.09 5.02.18.4.33.56.7.73.67.31 1.28.37 1.63.14.23-.15.35-.4.35-.74 0-.53-.37-.62-.69-.7Zm-9.8-3.7c-.2-.12-.38-.25-.38-.51 0-.15.07-.26.19-.31.03-.01.06-.02.09-.02.07 0 .13.03.17.07.12.14.09.42-.08.76Zm-4.82 1.69s.03-.01.17-.07c1.59-.6 2.19-1.55 2.55-2.12.02-.03.03-.05.05-.08.04.92.26 1.16.47 1.4.11.12.22.24.3.48-1.74 1.16-3.47 2.19-5.57 2.19-.22 0-.34-.02-.38-.07-.06-.07-.04-.25 0-.52.13-.79.23-.79.68-.8.32 0 .81-.01 1.53-.33.13-.06.17-.08.2-.09Zm.53-1.96c-.08.05-.17.11-.26.17-.1.07-.2.14-.29.21-.31.23-.61.44-1.02.54.1-.1.19-.19.27-.28.62-.63 1.04-1.06 2.19-1.37-.26.31-.52.49-.89.73Zm-5.88-.18c-.07.26-.22.41-.4.59h-.01c.01-.4.08-.43.36-.56.02 0 .03-.02.05-.02ZM34.86 8.98c.17-.21.26-.26.37-.33.09-.06.19-.12.34-.27.14-.14.22-.26.32-.38.09-.13.19-.26.35-.42.25-.25.41-.42.66-.66.1-.1.16-.15.23-.22l.39-.36c.28-.3.55-.5.79-.69.39-.3.71-.54.71-.96 0-.24-.08-.4-.23-.48-.37-.19-1.04.28-1.31.49-1.13.86-1.7 1.48-2.25 2.07-.39.42-.75.81-1.3 1.29-1.22 1.06-4.12 4.22-5.41 5.75-.1.12-.17.21-.23.29-.1.13-.17.23-.36.42-.21.21-.39.45-.56.69-.22.3-.43.59-.71.81-.46.37-.8.82-1.12 1.26-.24.32-.49.66-.79.96-.57.57-1.43 1.67-1.99 2.39-.26.33-.47.6-.52.65-.92.92-4.81 5.81-5.57 6.92l-4.7 6.31c-.05.07-.08.11-.1.16-.04.07-.08.12-.16.23l-3.17 4.52c-.1.16-.22.31-.33.45-.1.13-.2.25-.29.38-.23.33-.43.68-.63 1.02-.28.48-.57.98-.91 1.4-.67.82-1.42 2.06-2.15 3.25-.66 1.08-1.28 2.1-1.75 2.67L.89 51.12c-.07.15-.2.33-.33.51-.3.42-.64.89-.53 1.39.08.37.47.8.85.8.85 0 1.06-.4 1.31-.87.08-.15.16-.31.27-.46.07-.1.14-.18.21-.26.12-.14.24-.28.37-.51.23-.42.41-.66.57-.88.16-.22.31-.42.47-.74.23-.48.52-.91.79-1.33.26-.39.52-.8.74-1.23l2.17-3.27c.67-1.17 1.46-2.3 2.22-3.4.71-1.02 1.44-2.08 2.09-3.17.71-1.2 2.49-3.58 3.35-4.72.44-.59.77-1.06 1.15-1.63l12.58-15.91 5.71-6.49ZM99.63 41.59c-.38-.13-.7-.24-.78-.78-.18-1.17.12-2.79.72-3.87.08-.14.1-.19.14-.27.02-.04.04-.1.08-.18.63-1.37 1.11-1.86 1.66-2.42.38-.39.78-.79 1.26-1.51l.6-.73c.12-.16.43-.55.82-1.05 2.46-3.12 3.28-4.25 3.28-4.47 0-.52-.15-.85-.44-.97-.62-.25-1.67.57-2.19 1.1l-3.03 3.36c-.27.44-.5.75-.75 1.07-.33.44-.68.9-1.12 1.7-.64 1.16-1.14 1.82-1.89 2.71-.68.8-1.07 1.25-1.21 1.25-.03 0-.08-.04-.15-.11-.18-.18-.47-.47-1.25-.55h-.05c-.75-.08-1.16-.13-1.91.06-1.83.47-3.32 1.51-4.2 2.94-1.09 1.76-.27 2.6.17 3.04l.11.11c-.78.32-1.53.16-2.09.05-.43-.09-.77-.16-.98 0-.12.1-.18.27-.18.51 0 .42.21.74.6.93.31.15.73.22 1.22.22 1.78 0 4.41-.94 5.85-2.05l1.31-.96c.15-.15.31-.34.49-.53.43-.48.92-1.01 1.38-1.37-.02.27-.07.49-.13.71-.05.23-.1.44-.11.67-.02.77.42 2.16 1.33 2.76.01 0 1.32.76 1.98.41.22-.12.33-.34.33-.66 0-.83-.47-.99-.88-1.13Zm-8.39-.7c-.22 0-.27-.02-.33-.04s-.14-.06-.34-.08c0-.85.04-.88.39-1.24.06-.06.13-.13.21-.22l.27-.3c.49-.56.91-1.04 2.54-1.31l.26-.04c.64-.11.88-.15 1.36.06-.57.76-2.06 2.01-2.99 2.59-.05.03-1.21.51-1.37.57ZM155.78 10.37V9.33l-.05-.09c-.27-.18-.38-.25-.67-.4h-.1c-.3.16-.4.22-.67.4l-.05.09v.44c0 .43.01.88-.03 1.25-.05.4-.03.63-.02.86 0 .2.02.39-.01.71l-.07 10.53c0 .46-.03.77-.07 1.1-.06.55-.11 1.12-.04 2.44.04.69.01 2.33-.05 3.44 0 .09-.01.18-.02.28-.03.31-.06.69 0 1.15l-.47 16.12c0 .7-.06 1.32-.13 1.98-.07.66-.14 1.34-.14 2.12 0 .5 0 .9-.01 1.23-.01.9-.02 1.24.15 1.41.11.11.26.12.48.12H154.1l.11-.08c.04-.19.08-.35.12-.51.14-.54.23-.93.28-1.76l.14-3.58c0-.11 0-.23.02-.34l.51-9.33v-.48c0-.46 0-.89.04-1.34.03-.28.03-.36.02-.5v-.21l.34-8.74c0-.45.03-.74.07-1.05.04-.3.07-.61.07-1.06l.05-5.64c.03-.26.01-.37 0-.5-.02-.17-.05-.38 0-1.04.01-.16.01-.2.01-.24 0-.04 0-.07.01-.22 0-.09.01-.16.02-.23.03-.29.04-.41-.02-.84-.12-.8-.1-4.46-.08-6.42Z" class="cls-1"/><path d="M147.79 22.83c-.44.09-.77.22-1.12.35-.24.09-.49.18-.79.27l-8.99 3.34c-.07.03-.14.05-.21.08-.39.14-.79.29-.93.62-.08.19-.05.42.08.7l.02.03c.53.53 4.24-1.11 4.28-1.12.36-.16.64-.25.96-.36.15-.05.31-.1.49-.16.24-.09.54-.19.88-.32 1.4-.5 3.46-1.24 4.51-1.52l-5.06 8.63c-.36.6-.42.79-.47.93-.05.15-.08.25-.59.93l-2.02 3.69c-.21.41-.35.65-.49.88-.2.32-.38.63-.71 1.36l-1.96 3.74s-.02.04-.05.07c-.64.99-.86 1.65-.69 2.02.08.17.23.28.46.31h.08c.5 0 .85-.69 1.26-1.48.2-.39.41-.79.65-1.16l1.29-2.17c.16-.31.31-.55.46-.8.13-.21.27-.43.42-.7.09-.16.15-.27.22-.38.05-.09.11-.18.17-.3l2.87-5.19c.35-.46.43-.61.57-.88.07-.13.15-.29.29-.54l2.55-4.34c.26-.46.53-.93.8-1.46.22-.42.64-1.07 1.08-1.77.94-1.46 1.51-2.37 1.44-2.68v-.03c-.44-.81-.75-.84-1.76-.63ZM208.51 13.53c.24 0 .52-.1.78-.19.14-.05.28-.1.39-.12.1-.02.13-.03.14-.03.03 0 .06 0 .18-.02.98-.16 2.05-.45 3.09-.72 1.19-.32 2.42-.64 3.53-.79.24-.03.42-.08.6-.13.13-.04.28-.08.48-.12l4.07-.97c.13-.03.25-.06.36-.08.65-.14 1.05-.23 1.23-1.01l-.02-.08c-.57-.85-1.5-.57-2.9-.15-.48.15-1.03.31-1.64.45-.65.15-1.01.22-1.27.28-.56.11-.63.13-1.9.54-.04.01-.49.11-.51.11l-5.51 1.42c-.15.05-.34.09-.53.12-.55.11-1.17.23-1.17.74 0 .33.08.55.25.67.1.07.22.1.34.1ZM200.19 33.7l-.27-3.71-.08-.1c-.57-.13-.89-.12-1.08.05-.25.21-.21.63-.16 1.21.02.29.05.61.05.97l-.09 1.85c0 .27.01.46.04.69.02.2.05.43.06.77l.1 3.53c-.02.24 0 .48 0 .76.01.25.03.53.02.88l.09 3.16c.05 1.16.44 1.34.67 1.34.33 0 .63-.38.63-.67l-.08-8.94c-.03-.3 0-.56.03-.86.03-.27.06-.57.05-.94ZM160.26 21.34h.03c.4-.01 1.19-.99 1.98-2.05l3.58-4.31.05-.06c1-1.2 1.39-1.98 1.2-2.38-.08-.18-.27-.27-.56-.27-.66 0-1.32.87-2.02 1.79-.29.39-.6.79-.9 1.11l-1.94 2.59c-.14.22-.46.63-.8 1.08-.82 1.06-1.21 1.58-1.21 1.76 0 .2.02.45.18.6.1.09.23.14.4.14ZM205.62 33.75c.21.17.3.24.43.35.06.05.13.11.22.19.27.23.45.41.6.56.26.27.41.43.76.43.21 0 .36-.04.47-.11.11-.07.17-.19.17-.32 0-.39-.63-1.2-.89-1.39-.72-.92-1.42-1.27-2.04-1.04l-.07.08c-.02.1-.05.19-.08.26-.12.37-.15.54.43.99ZM208.14 40.07c-.07-.05-.15-.12-.24-.19-.93-.73-1.88-1.42-2.37-1.18-.17.09-.26.28-.26.57 0 .56.36.75.77.97.13.07.27.15.42.24.17.12.33.25.48.38.31.26.6.51.96.51.28 0 .54-.19.63-.44.05-.14.1-.49-.38-.86ZM221.75 30.72l-.07-.03c-.22 0-.53.07-.7.14l-.07.08c-.18.77.08.96.44 1.22.12.09.25.19.39.33.19.19.33.37.46.53.31.39.55.7 1.2.7.31 0 .43-.16.48-.26.12-.26 0-.67-.33-1.07l-1.8-1.64ZM223.2 38.69c-.09-.09-.17-.18-.26-.27-.44-.47-.9-.96-1.39-.96-.2 0-.36.09-.48.24-.13.18-.16.42-.09.63.03.1 1.63 2 2.43 2 .3 0 .42-.13.48-.23.13-.27-.07-.7-.3-.98l-.38-.42Z" class="cls-1"/></g></svg>